<?xml version="1.0" encoding="utf-8"?>
<svg viewBox="0 0 500 500" xmlns="http://www.w3.org/2000/svg">
  <path style="fill: rgb(216, 216, 216);" d="M 134.739 293.332 L 134.157 352.052 L 181.25 375.308 L 181.25 318.126 L 134.739 293.332 Z"/>
  <path style="fill: rgb(216, 216, 216);" d="M 181.827 375.308 L 181.245 316.588 L 228.338 293.332 L 228.342 350.514 L 181.827 375.308 Z" transform="matrix(-1, 0, 0, -1, 409.587005, 668.639989)"/>
  <path style="fill: rgb(184, 184, 184);" d="M 134.739 293.333 L 181.247 318.131 L 227.76 293.332 L 134.739 293.333 Z"/>
  <path style="fill: rgb(184, 184, 184);" d="M 134.702 293.403 L 181.21 268.605 L 227.723 293.404 L 134.702 293.403 Z"/>
  <path style="fill: rgb(238, 238, 238);" d="M 134.813 293.287 L 128.757 302.096 L 175.371 326.011 L 181.249 318.107 L 134.813 293.287 Z"/>
  <path style="fill: rgb(238, 238, 238);" d="M 187.233 325.986 L 181.177 317.177 L 227.791 293.262 L 233.669 301.166 L 187.233 325.986 Z" transform="matrix(-1, 0, 0, -1, 414.846033, 619.248014)"/>
  <path style="fill: rgb(216, 216, 216);" d="M 279.765 294.651 L 279.183 353.371 L 326.276 376.627 L 326.276 319.445 L 279.765 294.651 Z"/>
  <path style="fill: rgb(216, 216, 216);" d="M 326.853 376.627 L 326.271 317.907 L 373.364 294.651 L 373.368 351.833 L 326.853 376.627 Z" transform="matrix(-1, 0, 0, -1, 699.639038, 671.278002)"/>
  <path style="fill: rgb(184, 184, 184);" d="M 279.765 294.652 L 326.273 319.45 L 372.786 294.651 L 279.765 294.652 Z"/>
  <path style="fill: rgb(184, 184, 184);" d="M 279.728 294.722 L 326.236 269.924 L 372.749 294.723 L 279.728 294.722 Z"/>
  <path style="fill: rgb(238, 238, 238);" d="M 279.839 294.606 L 273.783 303.415 L 320.397 327.33 L 326.275 319.426 L 279.839 294.606 Z"/>
  <path style="fill: rgb(238, 238, 238);" d="M 332.259 327.305 L 326.203 318.496 L 372.817 294.581 L 378.695 302.485 L 332.259 327.305 Z" transform="matrix(-1, 0, 0, -1, 704.898067, 621.88595)"/>
  <path style="fill: rgb(216, 216, 216);" d="M 202.059 192.394 L 201.463 250.417 L 249.693 273.397 L 249.693 216.893 L 202.059 192.394 Z"/>
  <path style="fill: rgb(216, 216, 216);" d="M 250.254 274.663 L 249.686 215.246 L 295.643 191.714 L 295.646 249.575 L 250.254 274.663 Z" transform="matrix(-1, 0, 0, -1, 545.332035, 466.37699)"/>
  <path style="fill: rgb(184, 184, 184);" d="M 202.059 192.395 L 249.69 216.898 L 297.325 192.394 L 202.059 192.395 Z"/>
  <path style="fill: rgb(184, 184, 184);" d="M 202.021 192.464 L 249.652 167.96 L 297.287 192.465 L 202.021 192.464 Z"/>
  <path style="fill: rgb(238, 238, 238);" d="M 202.135 192.349 L 195.933 201.054 L 243.672 224.685 L 249.692 216.875 L 202.135 192.349 Z"/>
  <path style="fill: rgb(238, 238, 238);" d="M 255.53 224.756 L 249.62 215.842 L 295.109 191.644 L 300.845 199.641 L 255.53 224.756 Z" transform="matrix(-1, 0, 0, -1, 550.464973, 416.399992)"/>
</svg>